<svg width="331" height="506" viewBox="0 0 331 506" fill="none" xmlns="http://www.w3.org/2000/svg">
<circle cx="8" cy="497.85" r="7.5" transform="rotate(-90 8 497.85)" fill="#E9E6F5"/>
<circle cx="43" cy="497.85" r="7.5" transform="rotate(-90 43 497.85)" fill="#E9E6F5"/>
<circle cx="78" cy="497.85" r="7.5" transform="rotate(-90 78 497.85)" fill="#E9E6F5"/>
<circle cx="113" cy="497.85" r="7.5" transform="rotate(-90 113 497.85)" fill="#E9E6F5"/>
<circle cx="148" cy="497.85" r="7.5" transform="rotate(-90 148 497.85)" fill="#E9E6F5"/>
<circle cx="183" cy="497.85" r="7.5" transform="rotate(-90 183 497.85)" fill="#E9E6F5"/>
<circle cx="218" cy="497.85" r="7.5" transform="rotate(-90 218 497.85)" fill="#E9E6F5"/>
<circle cx="253" cy="497.85" r="7.5" transform="rotate(-90 253 497.85)" fill="#E9E6F5"/>
<circle cx="288" cy="497.85" r="7.5" transform="rotate(-90 288 497.85)" fill="#E9E6F5"/>
<circle cx="323" cy="497.85" r="7.5" transform="rotate(-90 323 497.85)" fill="#E9E6F5"/>
<circle cx="8" cy="462.85" r="7.5" transform="rotate(-90 8 462.85)" fill="#E9E6F5"/>
<circle cx="43" cy="462.85" r="7.5" transform="rotate(-90 43 462.85)" fill="#E9E6F5"/>
<circle cx="78" cy="462.85" r="7.5" transform="rotate(-90 78 462.85)" fill="#E9E6F5"/>
<circle cx="113" cy="462.85" r="7.5" transform="rotate(-90 113 462.85)" fill="#E9E6F5"/>
<circle cx="148" cy="462.85" r="7.5" transform="rotate(-90 148 462.85)" fill="#E9E6F5"/>
<circle cx="183" cy="462.85" r="7.5" transform="rotate(-90 183 462.85)" fill="#E9E6F5"/>
<circle cx="218" cy="462.85" r="7.5" transform="rotate(-90 218 462.85)" fill="#E9E6F5"/>
<circle cx="253" cy="462.85" r="7.5" transform="rotate(-90 253 462.85)" fill="#E9E6F5"/>
<circle cx="288" cy="462.85" r="7.5" transform="rotate(-90 288 462.85)" fill="#E9E6F5"/>
<circle cx="323" cy="462.85" r="7.5" transform="rotate(-90 323 462.85)" fill="#E9E6F5"/>
<circle cx="8" cy="427.85" r="7.5" transform="rotate(-90 8 427.85)" fill="#E9E6F5"/>
<circle cx="43" cy="427.85" r="7.5" transform="rotate(-90 43 427.85)" fill="#E9E6F5"/>
<circle cx="78" cy="427.85" r="7.5" transform="rotate(-90 78 427.85)" fill="#E9E6F5"/>
<circle cx="113" cy="427.85" r="7.5" transform="rotate(-90 113 427.85)" fill="#E9E6F5"/>
<circle cx="148" cy="427.85" r="7.5" transform="rotate(-90 148 427.85)" fill="#E9E6F5"/>
<circle cx="183" cy="427.85" r="7.5" transform="rotate(-90 183 427.85)" fill="#E9E6F5"/>
<circle cx="218" cy="427.85" r="7.5" transform="rotate(-90 218 427.85)" fill="#E9E6F5"/>
<circle cx="253" cy="427.85" r="7.5" transform="rotate(-90 253 427.85)" fill="#E9E6F5"/>
<circle cx="288" cy="427.85" r="7.5" transform="rotate(-90 288 427.85)" fill="#E9E6F5"/>
<circle cx="323" cy="427.85" r="7.5" transform="rotate(-90 323 427.85)" fill="#E9E6F5"/>
<circle cx="8" cy="392.85" r="7.5" transform="rotate(-90 8 392.85)" fill="#E9E6F5"/>
<circle cx="43" cy="392.85" r="7.5" transform="rotate(-90 43 392.85)" fill="#E9E6F5"/>
<circle cx="78" cy="392.85" r="7.5" transform="rotate(-90 78 392.85)" fill="#E9E6F5"/>
<circle cx="113" cy="392.85" r="7.5" transform="rotate(-90 113 392.85)" fill="#E9E6F5"/>
<circle cx="148" cy="392.85" r="7.5" transform="rotate(-90 148 392.85)" fill="#E9E6F5"/>
<circle cx="183" cy="392.85" r="7.5" transform="rotate(-90 183 392.85)" fill="#E9E6F5"/>
<circle cx="218" cy="392.85" r="7.5" transform="rotate(-90 218 392.85)" fill="#E9E6F5"/>
<circle cx="253" cy="392.85" r="7.5" transform="rotate(-90 253 392.85)" fill="#E9E6F5"/>
<circle cx="288" cy="392.85" r="7.5" transform="rotate(-90 288 392.85)" fill="#E9E6F5"/>
<circle cx="323" cy="392.85" r="7.5" transform="rotate(-90 323 392.85)" fill="#E9E6F5"/>
<circle cx="8" cy="357.85" r="7.5" transform="rotate(-90 8 357.85)" fill="#E9E6F5"/>
<circle cx="43" cy="357.85" r="7.5" transform="rotate(-90 43 357.85)" fill="#E9E6F5"/>
<circle cx="78" cy="357.85" r="7.5" transform="rotate(-90 78 357.85)" fill="#E9E6F5"/>
<circle cx="113" cy="357.85" r="7.5" transform="rotate(-90 113 357.85)" fill="#E9E6F5"/>
<circle cx="148" cy="357.85" r="7.5" transform="rotate(-90 148 357.85)" fill="#E9E6F5"/>
<circle cx="183" cy="357.85" r="7.5" transform="rotate(-90 183 357.85)" fill="#E9E6F5"/>
<circle cx="218" cy="357.85" r="7.5" transform="rotate(-90 218 357.85)" fill="#E9E6F5"/>
<circle cx="253" cy="357.85" r="7.5" transform="rotate(-90 253 357.85)" fill="#E9E6F5"/>
<circle cx="288" cy="357.85" r="7.5" transform="rotate(-90 288 357.85)" fill="#E9E6F5"/>
<circle cx="323" cy="357.85" r="7.5" transform="rotate(-90 323 357.85)" fill="#E9E6F5"/>
<circle cx="8" cy="322.85" r="7.5" transform="rotate(-90 8 322.85)" fill="#E9E6F5"/>
<circle cx="43" cy="322.85" r="7.5" transform="rotate(-90 43 322.85)" fill="#E9E6F5"/>
<circle cx="78" cy="322.85" r="7.5" transform="rotate(-90 78 322.85)" fill="#E9E6F5"/>
<circle cx="113" cy="322.85" r="7.5" transform="rotate(-90 113 322.85)" fill="#E9E6F5"/>
<circle cx="148" cy="322.85" r="7.5" transform="rotate(-90 148 322.85)" fill="#E9E6F5"/>
<circle cx="183" cy="322.85" r="7.5" transform="rotate(-90 183 322.85)" fill="#E9E6F5"/>
<circle cx="218" cy="322.85" r="7.5" transform="rotate(-90 218 322.85)" fill="#E9E6F5"/>
<circle cx="253" cy="322.85" r="7.5" transform="rotate(-90 253 322.85)" fill="#E9E6F5"/>
<circle cx="288" cy="322.85" r="7.5" transform="rotate(-90 288 322.85)" fill="#E9E6F5"/>
<circle cx="323" cy="322.85" r="7.5" transform="rotate(-90 323 322.85)" fill="#E9E6F5"/>
<circle cx="8" cy="287.85" r="7.5" transform="rotate(-90 8 287.85)" fill="#E9E6F5"/>
<circle cx="43" cy="287.85" r="7.5" transform="rotate(-90 43 287.85)" fill="#E9E6F5"/>
<circle cx="78" cy="287.85" r="7.5" transform="rotate(-90 78 287.85)" fill="#E9E6F5"/>
<circle cx="113" cy="287.85" r="7.5" transform="rotate(-90 113 287.85)" fill="#E9E6F5"/>
<circle cx="148" cy="287.85" r="7.5" transform="rotate(-90 148 287.85)" fill="#E9E6F5"/>
<circle cx="183" cy="287.85" r="7.5" transform="rotate(-90 183 287.85)" fill="#E9E6F5"/>
<circle cx="218" cy="287.85" r="7.5" transform="rotate(-90 218 287.85)" fill="#E9E6F5"/>
<circle cx="253" cy="287.85" r="7.5" transform="rotate(-90 253 287.85)" fill="#E9E6F5"/>
<circle cx="288" cy="287.85" r="7.5" transform="rotate(-90 288 287.85)" fill="#E9E6F5"/>
<circle cx="323" cy="287.85" r="7.5" transform="rotate(-90 323 287.85)" fill="#E9E6F5"/>
<circle cx="8" cy="252.85" r="7.5" transform="rotate(-90 8 252.85)" fill="#E9E6F5"/>
<circle cx="43" cy="252.85" r="7.5" transform="rotate(-90 43 252.85)" fill="#E9E6F5"/>
<circle cx="78" cy="252.85" r="7.5" transform="rotate(-90 78 252.85)" fill="#E9E6F5"/>
<circle cx="113" cy="252.85" r="7.5" transform="rotate(-90 113 252.85)" fill="#E9E6F5"/>
<circle cx="148" cy="252.85" r="7.5" transform="rotate(-90 148 252.85)" fill="#E9E6F5"/>
<circle cx="183" cy="252.85" r="7.5" transform="rotate(-90 183 252.85)" fill="#E9E6F5"/>
<circle cx="218" cy="252.85" r="7.5" transform="rotate(-90 218 252.85)" fill="#E9E6F5"/>
<circle cx="253" cy="252.85" r="7.5" transform="rotate(-90 253 252.85)" fill="#E9E6F5"/>
<circle cx="288" cy="252.85" r="7.5" transform="rotate(-90 288 252.85)" fill="#E9E6F5"/>
<circle cx="323" cy="252.85" r="7.5" transform="rotate(-90 323 252.85)" fill="#E9E6F5"/>
<circle cx="8" cy="217.85" r="7.5" transform="rotate(-90 8 217.85)" fill="#E9E6F5"/>
<circle cx="43" cy="217.85" r="7.5" transform="rotate(-90 43 217.85)" fill="#E9E6F5"/>
<circle cx="78" cy="217.85" r="7.5" transform="rotate(-90 78 217.85)" fill="#E9E6F5"/>
<circle cx="113" cy="217.85" r="7.5" transform="rotate(-90 113 217.85)" fill="#E9E6F5"/>
<circle cx="148" cy="217.85" r="7.5" transform="rotate(-90 148 217.85)" fill="#E9E6F5"/>
<circle cx="183" cy="217.85" r="7.5" transform="rotate(-90 183 217.85)" fill="#E9E6F5"/>
<circle cx="218" cy="217.85" r="7.5" transform="rotate(-90 218 217.85)" fill="#E9E6F5"/>
<circle cx="253" cy="217.85" r="7.5" transform="rotate(-90 253 217.85)" fill="#E9E6F5"/>
<circle cx="288" cy="217.85" r="7.5" transform="rotate(-90 288 217.85)" fill="#E9E6F5"/>
<circle cx="323" cy="217.85" r="7.5" transform="rotate(-90 323 217.85)" fill="#E9E6F5"/>
<circle cx="8" cy="182.85" r="7.5" transform="rotate(-90 8 182.85)" fill="#E9E6F5"/>
<circle cx="43" cy="182.85" r="7.5" transform="rotate(-90 43 182.85)" fill="#E9E6F5"/>
<circle cx="78" cy="182.85" r="7.5" transform="rotate(-90 78 182.85)" fill="#E9E6F5"/>
<circle cx="113" cy="182.85" r="7.5" transform="rotate(-90 113 182.85)" fill="#E9E6F5"/>
<circle cx="148" cy="182.85" r="7.5" transform="rotate(-90 148 182.85)" fill="#E9E6F5"/>
<circle cx="183" cy="182.85" r="7.5" transform="rotate(-90 183 182.85)" fill="#E9E6F5"/>
<circle cx="218" cy="182.85" r="7.5" transform="rotate(-90 218 182.85)" fill="#E9E6F5"/>
<circle cx="253" cy="182.85" r="7.5" transform="rotate(-90 253 182.85)" fill="#E9E6F5"/>
<circle cx="288" cy="182.85" r="7.5" transform="rotate(-90 288 182.85)" fill="#E9E6F5"/>
<circle cx="323" cy="182.85" r="7.5" transform="rotate(-90 323 182.85)" fill="#E9E6F5"/>
<circle cx="8" cy="147.85" r="7.5" transform="rotate(-90 8 147.85)" fill="#E9E6F5"/>
<circle cx="43" cy="147.85" r="7.5" transform="rotate(-90 43 147.85)" fill="#E9E6F5"/>
<circle cx="78" cy="147.85" r="7.5" transform="rotate(-90 78 147.85)" fill="#E9E6F5"/>
<circle cx="113" cy="147.85" r="7.5" transform="rotate(-90 113 147.85)" fill="#E9E6F5"/>
<circle cx="148" cy="147.85" r="7.5" transform="rotate(-90 148 147.85)" fill="#E9E6F5"/>
<circle cx="183" cy="147.85" r="7.5" transform="rotate(-90 183 147.85)" fill="#E9E6F5"/>
<circle cx="218" cy="147.85" r="7.5" transform="rotate(-90 218 147.85)" fill="#E9E6F5"/>
<circle cx="253" cy="147.85" r="7.5" transform="rotate(-90 253 147.85)" fill="#E9E6F5"/>
<circle cx="288" cy="147.85" r="7.5" transform="rotate(-90 288 147.85)" fill="#E9E6F5"/>
<circle cx="323" cy="147.85" r="7.5" transform="rotate(-90 323 147.85)" fill="#E9E6F5"/>
<circle cx="8" cy="112.85" r="7.5" transform="rotate(-90 8 112.85)" fill="#E9E6F5"/>
<circle cx="43" cy="112.85" r="7.5" transform="rotate(-90 43 112.85)" fill="#E9E6F5"/>
<circle cx="78" cy="112.85" r="7.5" transform="rotate(-90 78 112.85)" fill="#E9E6F5"/>
<circle cx="113" cy="112.85" r="7.5" transform="rotate(-90 113 112.85)" fill="#E9E6F5"/>
<circle cx="148" cy="112.85" r="7.5" transform="rotate(-90 148 112.85)" fill="#E9E6F5"/>
<circle cx="183" cy="112.85" r="7.5" transform="rotate(-90 183 112.85)" fill="#E9E6F5"/>
<circle cx="218" cy="112.85" r="7.5" transform="rotate(-90 218 112.85)" fill="#E9E6F5"/>
<circle cx="253" cy="112.85" r="7.5" transform="rotate(-90 253 112.85)" fill="#E9E6F5"/>
<circle cx="288" cy="112.85" r="7.5" transform="rotate(-90 288 112.85)" fill="#E9E6F5"/>
<circle cx="323" cy="112.85" r="7.5" transform="rotate(-90 323 112.85)" fill="#E9E6F5"/>
<circle cx="8" cy="77.85" r="7.5" transform="rotate(-90 8 77.85)" fill="#E9E6F5"/>
<circle cx="43" cy="77.85" r="7.5" transform="rotate(-90 43 77.85)" fill="#E9E6F5"/>
<circle cx="78" cy="77.85" r="7.5" transform="rotate(-90 78 77.85)" fill="#E9E6F5"/>
<circle cx="113" cy="77.85" r="7.5" transform="rotate(-90 113 77.85)" fill="#E9E6F5"/>
<circle cx="148" cy="77.85" r="7.5" transform="rotate(-90 148 77.85)" fill="#E9E6F5"/>
<circle cx="183" cy="77.85" r="7.5" transform="rotate(-90 183 77.85)" fill="#E9E6F5"/>
<circle cx="218" cy="77.85" r="7.5" transform="rotate(-90 218 77.85)" fill="#E9E6F5"/>
<circle cx="253" cy="77.85" r="7.5" transform="rotate(-90 253 77.85)" fill="#E9E6F5"/>
<circle cx="288" cy="77.85" r="7.5" transform="rotate(-90 288 77.85)" fill="#E9E6F5"/>
<circle cx="323" cy="77.85" r="7.5" transform="rotate(-90 323 77.85)" fill="#E9E6F5"/>
<circle cx="8" cy="42.85" r="7.5" transform="rotate(-90 8 42.85)" fill="#E9E6F5"/>
<circle cx="43" cy="42.85" r="7.5" transform="rotate(-90 43 42.85)" fill="#E9E6F5"/>
<circle cx="78" cy="42.85" r="7.5" transform="rotate(-90 78 42.85)" fill="#E9E6F5"/>
<circle cx="113" cy="42.85" r="7.5" transform="rotate(-90 113 42.85)" fill="#E9E6F5"/>
<circle cx="148" cy="42.85" r="7.5" transform="rotate(-90 148 42.85)" fill="#E9E6F5"/>
<circle cx="183" cy="42.85" r="7.5" transform="rotate(-90 183 42.85)" fill="#E9E6F5"/>
<circle cx="218" cy="42.85" r="7.5" transform="rotate(-90 218 42.85)" fill="#E9E6F5"/>
<circle cx="253" cy="42.85" r="7.5" transform="rotate(-90 253 42.85)" fill="#E9E6F5"/>
<circle cx="288" cy="42.85" r="7.5" transform="rotate(-90 288 42.85)" fill="#E9E6F5"/>
<circle cx="323" cy="42.85" r="7.5" transform="rotate(-90 323 42.85)" fill="#E9E6F5"/>
<circle cx="8" cy="7.85004" r="7.5" transform="rotate(-90 8 7.85004)" fill="#E9E6F5"/>
<circle cx="43" cy="7.85004" r="7.5" transform="rotate(-90 43 7.85004)" fill="#E9E6F5"/>
<circle cx="78" cy="7.85004" r="7.5" transform="rotate(-90 78 7.85004)" fill="#E9E6F5"/>
<circle cx="113" cy="7.85004" r="7.5" transform="rotate(-90 113 7.85004)" fill="#E9E6F5"/>
<circle cx="148" cy="7.85004" r="7.5" transform="rotate(-90 148 7.85004)" fill="#E9E6F5"/>
<circle cx="183" cy="7.85004" r="7.5" transform="rotate(-90 183 7.85004)" fill="#E9E6F5"/>
<circle cx="218" cy="7.85004" r="7.5" transform="rotate(-90 218 7.85004)" fill="#E9E6F5"/>
<circle cx="253" cy="7.85004" r="7.5" transform="rotate(-90 253 7.85004)" fill="#E9E6F5"/>
<circle cx="288" cy="7.85004" r="7.5" transform="rotate(-90 288 7.85004)" fill="#E9E6F5"/>
<circle cx="323" cy="7.85004" r="7.5" transform="rotate(-90 323 7.85004)" fill="#E9E6F5"/>
</svg>
