<svg width="505" height="330" viewBox="0 0 505 330" fill="none" xmlns="http://www.w3.org/2000/svg">
<circle cx="7.5" cy="7.5" r="7.5" fill="#E9E6F5"/>
<circle cx="7.5" cy="42.5" r="7.5" fill="#E9E6F5"/>
<circle cx="7.5" cy="77.5" r="7.5" fill="#E9E6F5"/>
<circle cx="7.5" cy="112.5" r="7.5" fill="#E9E6F5"/>
<circle cx="7.5" cy="147.5" r="7.5" fill="#E9E6F5"/>
<circle cx="7.5" cy="182.5" r="7.5" fill="#E9E6F5"/>
<circle cx="7.5" cy="217.5" r="7.5" fill="#E9E6F5"/>
<circle cx="7.5" cy="252.5" r="7.5" fill="#E9E6F5"/>
<circle cx="7.5" cy="287.5" r="7.5" fill="#E9E6F5"/>
<circle cx="7.5" cy="322.5" r="7.5" fill="#E9E6F5"/>
<circle cx="42.5" cy="7.5" r="7.5" fill="#E9E6F5"/>
<circle cx="42.5" cy="42.5" r="7.5" fill="#E9E6F5"/>
<circle cx="42.5" cy="77.5" r="7.5" fill="#E9E6F5"/>
<circle cx="42.5" cy="112.5" r="7.5" fill="#E9E6F5"/>
<circle cx="42.5" cy="147.5" r="7.5" fill="#E9E6F5"/>
<circle cx="42.5" cy="182.5" r="7.5" fill="#E9E6F5"/>
<circle cx="42.5" cy="217.5" r="7.5" fill="#E9E6F5"/>
<circle cx="42.5" cy="252.5" r="7.5" fill="#E9E6F5"/>
<circle cx="42.5" cy="287.5" r="7.5" fill="#E9E6F5"/>
<circle cx="42.5" cy="322.5" r="7.5" fill="#E9E6F5"/>
<circle cx="77.5" cy="7.5" r="7.5" fill="#E9E6F5"/>
<circle cx="77.5" cy="42.5" r="7.5" fill="#E9E6F5"/>
<circle cx="77.5" cy="77.5" r="7.5" fill="#E9E6F5"/>
<circle cx="77.5" cy="112.5" r="7.5" fill="#E9E6F5"/>
<circle cx="77.5" cy="147.5" r="7.5" fill="#E9E6F5"/>
<circle cx="77.5" cy="182.5" r="7.5" fill="#E9E6F5"/>
<circle cx="77.5" cy="217.5" r="7.5" fill="#E9E6F5"/>
<circle cx="77.5" cy="252.5" r="7.5" fill="#E9E6F5"/>
<circle cx="77.5" cy="287.5" r="7.5" fill="#E9E6F5"/>
<circle cx="77.5" cy="322.5" r="7.5" fill="#E9E6F5"/>
<circle cx="112.5" cy="7.5" r="7.5" fill="#E9E6F5"/>
<circle cx="112.5" cy="42.5" r="7.5" fill="#E9E6F5"/>
<circle cx="112.5" cy="77.5" r="7.5" fill="#E9E6F5"/>
<circle cx="112.5" cy="112.5" r="7.5" fill="#E9E6F5"/>
<circle cx="112.5" cy="147.5" r="7.5" fill="#E9E6F5"/>
<circle cx="112.5" cy="182.5" r="7.5" fill="#E9E6F5"/>
<circle cx="112.5" cy="217.5" r="7.5" fill="#E9E6F5"/>
<circle cx="112.5" cy="252.5" r="7.5" fill="#E9E6F5"/>
<circle cx="112.5" cy="287.5" r="7.5" fill="#E9E6F5"/>
<circle cx="112.5" cy="322.5" r="7.5" fill="#E9E6F5"/>
<circle cx="147.5" cy="7.5" r="7.5" fill="#E9E6F5"/>
<circle cx="147.5" cy="42.5" r="7.5" fill="#E9E6F5"/>
<circle cx="147.5" cy="77.5" r="7.5" fill="#E9E6F5"/>
<circle cx="147.5" cy="112.5" r="7.5" fill="#E9E6F5"/>
<circle cx="147.5" cy="147.5" r="7.5" fill="#E9E6F5"/>
<circle cx="147.5" cy="182.5" r="7.5" fill="#E9E6F5"/>
<circle cx="147.5" cy="217.5" r="7.5" fill="#E9E6F5"/>
<circle cx="147.5" cy="252.5" r="7.5" fill="#E9E6F5"/>
<circle cx="147.5" cy="287.5" r="7.5" fill="#E9E6F5"/>
<circle cx="147.5" cy="322.5" r="7.5" fill="#E9E6F5"/>
<circle cx="182.5" cy="7.5" r="7.5" fill="#E9E6F5"/>
<circle cx="182.5" cy="42.5" r="7.5" fill="#E9E6F5"/>
<circle cx="182.5" cy="77.5" r="7.5" fill="#E9E6F5"/>
<circle cx="182.5" cy="112.5" r="7.5" fill="#E9E6F5"/>
<circle cx="182.5" cy="147.5" r="7.5" fill="#E9E6F5"/>
<circle cx="182.5" cy="182.5" r="7.5" fill="#E9E6F5"/>
<circle cx="182.5" cy="217.5" r="7.5" fill="#E9E6F5"/>
<circle cx="182.5" cy="252.5" r="7.5" fill="#E9E6F5"/>
<circle cx="182.5" cy="287.5" r="7.5" fill="#E9E6F5"/>
<circle cx="182.5" cy="322.5" r="7.5" fill="#E9E6F5"/>
<circle cx="217.5" cy="7.5" r="7.5" fill="#E9E6F5"/>
<circle cx="217.5" cy="42.5" r="7.5" fill="#E9E6F5"/>
<circle cx="217.5" cy="77.5" r="7.5" fill="#E9E6F5"/>
<circle cx="217.5" cy="112.5" r="7.5" fill="#E9E6F5"/>
<circle cx="217.5" cy="147.5" r="7.5" fill="#E9E6F5"/>
<circle cx="217.5" cy="182.5" r="7.5" fill="#E9E6F5"/>
<circle cx="217.5" cy="217.5" r="7.5" fill="#E9E6F5"/>
<circle cx="217.5" cy="252.5" r="7.5" fill="#E9E6F5"/>
<circle cx="217.5" cy="287.5" r="7.5" fill="#E9E6F5"/>
<circle cx="217.5" cy="322.5" r="7.5" fill="#E9E6F5"/>
<circle cx="252.5" cy="7.5" r="7.5" fill="#E9E6F5"/>
<circle cx="252.5" cy="42.5" r="7.5" fill="#E9E6F5"/>
<circle cx="252.5" cy="77.5" r="7.5" fill="#E9E6F5"/>
<circle cx="252.5" cy="112.5" r="7.5" fill="#E9E6F5"/>
<circle cx="252.5" cy="147.5" r="7.5" fill="#E9E6F5"/>
<circle cx="252.5" cy="182.5" r="7.5" fill="#E9E6F5"/>
<circle cx="252.5" cy="217.5" r="7.5" fill="#E9E6F5"/>
<circle cx="252.5" cy="252.5" r="7.5" fill="#E9E6F5"/>
<circle cx="252.5" cy="287.5" r="7.5" fill="#E9E6F5"/>
<circle cx="252.5" cy="322.5" r="7.5" fill="#E9E6F5"/>
<circle cx="287.5" cy="7.5" r="7.5" fill="#E9E6F5"/>
<circle cx="287.5" cy="42.5" r="7.5" fill="#E9E6F5"/>
<circle cx="287.5" cy="77.5" r="7.5" fill="#E9E6F5"/>
<circle cx="287.5" cy="112.5" r="7.5" fill="#E9E6F5"/>
<circle cx="287.5" cy="147.5" r="7.5" fill="#E9E6F5"/>
<circle cx="287.5" cy="182.5" r="7.5" fill="#E9E6F5"/>
<circle cx="287.5" cy="217.5" r="7.5" fill="#E9E6F5"/>
<circle cx="287.5" cy="252.5" r="7.5" fill="#E9E6F5"/>
<circle cx="287.5" cy="287.5" r="7.5" fill="#E9E6F5"/>
<circle cx="287.5" cy="322.5" r="7.5" fill="#E9E6F5"/>
<circle cx="322.5" cy="7.5" r="7.5" fill="#E9E6F5"/>
<circle cx="322.5" cy="42.5" r="7.5" fill="#E9E6F5"/>
<circle cx="322.5" cy="77.5" r="7.5" fill="#E9E6F5"/>
<circle cx="322.5" cy="112.5" r="7.5" fill="#E9E6F5"/>
<circle cx="322.5" cy="147.5" r="7.5" fill="#E9E6F5"/>
<circle cx="322.5" cy="182.5" r="7.5" fill="#E9E6F5"/>
<circle cx="322.5" cy="217.5" r="7.5" fill="#E9E6F5"/>
<circle cx="322.5" cy="252.5" r="7.5" fill="#E9E6F5"/>
<circle cx="322.5" cy="287.5" r="7.5" fill="#E9E6F5"/>
<circle cx="322.5" cy="322.5" r="7.5" fill="#E9E6F5"/>
<circle cx="357.5" cy="7.5" r="7.5" fill="#E9E6F5"/>
<circle cx="357.5" cy="42.5" r="7.5" fill="#E9E6F5"/>
<circle cx="357.5" cy="77.5" r="7.5" fill="#E9E6F5"/>
<circle cx="357.5" cy="112.5" r="7.5" fill="#E9E6F5"/>
<circle cx="357.5" cy="147.5" r="7.5" fill="#E9E6F5"/>
<circle cx="357.5" cy="182.5" r="7.5" fill="#E9E6F5"/>
<circle cx="357.5" cy="217.5" r="7.5" fill="#E9E6F5"/>
<circle cx="357.5" cy="252.5" r="7.5" fill="#E9E6F5"/>
<circle cx="357.5" cy="287.5" r="7.5" fill="#E9E6F5"/>
<circle cx="357.5" cy="322.5" r="7.5" fill="#E9E6F5"/>
<circle cx="392.5" cy="7.5" r="7.5" fill="#E9E6F5"/>
<circle cx="392.5" cy="42.5" r="7.5" fill="#E9E6F5"/>
<circle cx="392.5" cy="77.5" r="7.5" fill="#E9E6F5"/>
<circle cx="392.5" cy="112.5" r="7.5" fill="#E9E6F5"/>
<circle cx="392.5" cy="147.5" r="7.5" fill="#E9E6F5"/>
<circle cx="392.5" cy="182.5" r="7.5" fill="#E9E6F5"/>
<circle cx="392.5" cy="217.5" r="7.5" fill="#E9E6F5"/>
<circle cx="392.5" cy="252.5" r="7.5" fill="#E9E6F5"/>
<circle cx="392.5" cy="287.5" r="7.5" fill="#E9E6F5"/>
<circle cx="392.5" cy="322.5" r="7.5" fill="#E9E6F5"/>
<circle cx="427.5" cy="7.5" r="7.5" fill="#E9E6F5"/>
<circle cx="427.5" cy="42.5" r="7.5" fill="#E9E6F5"/>
<circle cx="427.5" cy="77.5" r="7.5" fill="#E9E6F5"/>
<circle cx="427.5" cy="112.5" r="7.5" fill="#E9E6F5"/>
<circle cx="427.5" cy="147.5" r="7.5" fill="#E9E6F5"/>
<circle cx="427.5" cy="182.5" r="7.5" fill="#E9E6F5"/>
<circle cx="427.5" cy="217.5" r="7.5" fill="#E9E6F5"/>
<circle cx="427.5" cy="252.5" r="7.5" fill="#E9E6F5"/>
<circle cx="427.5" cy="287.5" r="7.5" fill="#E9E6F5"/>
<circle cx="427.5" cy="322.5" r="7.5" fill="#E9E6F5"/>
<circle cx="462.5" cy="7.5" r="7.5" fill="#E9E6F5"/>
<circle cx="462.5" cy="42.5" r="7.5" fill="#E9E6F5"/>
<circle cx="462.5" cy="77.5" r="7.5" fill="#E9E6F5"/>
<circle cx="462.5" cy="112.5" r="7.5" fill="#E9E6F5"/>
<circle cx="462.5" cy="147.5" r="7.5" fill="#E9E6F5"/>
<circle cx="462.5" cy="182.5" r="7.5" fill="#E9E6F5"/>
<circle cx="462.5" cy="217.5" r="7.5" fill="#E9E6F5"/>
<circle cx="462.5" cy="252.5" r="7.5" fill="#E9E6F5"/>
<circle cx="462.5" cy="287.5" r="7.5" fill="#E9E6F5"/>
<circle cx="462.5" cy="322.5" r="7.5" fill="#E9E6F5"/>
<circle cx="497.5" cy="7.5" r="7.5" fill="#E9E6F5"/>
<circle cx="497.5" cy="42.5" r="7.5" fill="#E9E6F5"/>
<circle cx="497.5" cy="77.5" r="7.5" fill="#E9E6F5"/>
<circle cx="497.5" cy="112.5" r="7.5" fill="#E9E6F5"/>
<circle cx="497.5" cy="147.5" r="7.5" fill="#E9E6F5"/>
<circle cx="497.5" cy="182.5" r="7.5" fill="#E9E6F5"/>
<circle cx="497.5" cy="217.5" r="7.5" fill="#E9E6F5"/>
<circle cx="497.5" cy="252.5" r="7.5" fill="#E9E6F5"/>
<circle cx="497.5" cy="287.5" r="7.5" fill="#E9E6F5"/>
<circle cx="497.5" cy="322.5" r="7.5" fill="#E9E6F5"/>
</svg>
