<svg width="1326" height="982" viewBox="0 0 1326 982" fill="none" xmlns="http://www.w3.org/2000/svg">
<rect x="658.047" y="133.253" width="76.7964" height="76.7964" transform="rotate(-60 658.047 133.253)" fill="#EAE8F4"/>
<circle cx="7.5" cy="659.35" r="7.5" fill="#E9E6F5"/>
<circle cx="7.5" cy="694.35" r="7.5" fill="#E9E6F5"/>
<circle cx="7.5" cy="729.35" r="7.5" fill="#E9E6F5"/>
<circle cx="7.5" cy="764.35" r="7.5" fill="#E9E6F5"/>
<circle cx="7.5" cy="799.35" r="7.5" fill="#E9E6F5"/>
<circle cx="7.5" cy="834.35" r="7.5" fill="#E9E6F5"/>
<circle cx="7.5" cy="869.35" r="7.5" fill="#E9E6F5"/>
<circle cx="7.5" cy="904.35" r="7.5" fill="#E9E6F5"/>
<circle cx="7.5" cy="939.35" r="7.5" fill="#E9E6F5"/>
<circle cx="7.5" cy="974.35" r="7.5" fill="#E9E6F5"/>
<circle cx="42.5" cy="659.35" r="7.5" fill="#E9E6F5"/>
<circle cx="42.5" cy="694.35" r="7.5" fill="#E9E6F5"/>
<circle cx="42.5" cy="729.35" r="7.5" fill="#E9E6F5"/>
<circle cx="42.5" cy="764.35" r="7.5" fill="#E9E6F5"/>
<circle cx="42.5" cy="799.35" r="7.5" fill="#E9E6F5"/>
<circle cx="42.5" cy="834.35" r="7.5" fill="#E9E6F5"/>
<circle cx="42.5" cy="869.35" r="7.5" fill="#E9E6F5"/>
<circle cx="42.5" cy="904.35" r="7.5" fill="#E9E6F5"/>
<circle cx="42.5" cy="939.35" r="7.5" fill="#E9E6F5"/>
<circle cx="42.5" cy="974.35" r="7.5" fill="#E9E6F5"/>
<circle cx="77.5" cy="659.35" r="7.5" fill="#E9E6F5"/>
<circle cx="77.5" cy="694.35" r="7.5" fill="#E9E6F5"/>
<circle cx="77.5" cy="729.35" r="7.5" fill="#E9E6F5"/>
<circle cx="77.5" cy="764.35" r="7.5" fill="#E9E6F5"/>
<circle cx="77.5" cy="799.35" r="7.5" fill="#E9E6F5"/>
<circle cx="77.5" cy="834.35" r="7.5" fill="#E9E6F5"/>
<circle cx="77.5" cy="869.35" r="7.5" fill="#E9E6F5"/>
<circle cx="77.5" cy="904.35" r="7.5" fill="#E9E6F5"/>
<circle cx="77.5" cy="939.35" r="7.5" fill="#E9E6F5"/>
<circle cx="77.5" cy="974.35" r="7.5" fill="#E9E6F5"/>
<circle cx="112.5" cy="659.35" r="7.5" fill="#E9E6F5"/>
<circle cx="112.5" cy="694.35" r="7.5" fill="#E9E6F5"/>
<circle cx="112.5" cy="729.35" r="7.5" fill="#E9E6F5"/>
<circle cx="112.5" cy="764.35" r="7.5" fill="#E9E6F5"/>
<circle cx="112.5" cy="799.35" r="7.5" fill="#E9E6F5"/>
<circle cx="112.5" cy="834.35" r="7.5" fill="#E9E6F5"/>
<circle cx="112.5" cy="869.35" r="7.5" fill="#E9E6F5"/>
<circle cx="112.5" cy="904.35" r="7.5" fill="#E9E6F5"/>
<circle cx="112.5" cy="939.35" r="7.5" fill="#E9E6F5"/>
<circle cx="112.5" cy="974.35" r="7.5" fill="#E9E6F5"/>
<circle cx="147.5" cy="659.35" r="7.5" fill="#E9E6F5"/>
<circle cx="147.5" cy="694.35" r="7.5" fill="#E9E6F5"/>
<circle cx="147.5" cy="729.35" r="7.5" fill="#E9E6F5"/>
<circle cx="147.5" cy="764.35" r="7.5" fill="#E9E6F5"/>
<circle cx="147.5" cy="799.35" r="7.5" fill="#E9E6F5"/>
<circle cx="147.5" cy="834.35" r="7.5" fill="#E9E6F5"/>
<circle cx="147.5" cy="869.35" r="7.5" fill="#E9E6F5"/>
<circle cx="147.5" cy="904.35" r="7.5" fill="#E9E6F5"/>
<circle cx="147.5" cy="939.35" r="7.5" fill="#E9E6F5"/>
<circle cx="147.5" cy="974.35" r="7.5" fill="#E9E6F5"/>
<circle cx="182.5" cy="659.35" r="7.5" fill="#E9E6F5"/>
<circle cx="182.5" cy="694.35" r="7.5" fill="#E9E6F5"/>
<circle cx="182.5" cy="729.35" r="7.5" fill="#E9E6F5"/>
<circle cx="182.5" cy="764.35" r="7.5" fill="#E9E6F5"/>
<circle cx="182.5" cy="799.35" r="7.5" fill="#E9E6F5"/>
<circle cx="182.5" cy="834.35" r="7.5" fill="#E9E6F5"/>
<circle cx="182.5" cy="869.35" r="7.5" fill="#E9E6F5"/>
<circle cx="182.5" cy="904.35" r="7.5" fill="#E9E6F5"/>
<circle cx="182.5" cy="939.35" r="7.5" fill="#E9E6F5"/>
<circle cx="182.5" cy="974.35" r="7.5" fill="#E9E6F5"/>
<circle cx="217.5" cy="659.35" r="7.5" fill="#E9E6F5"/>
<circle cx="217.5" cy="694.35" r="7.5" fill="#E9E6F5"/>
<circle cx="217.5" cy="729.35" r="7.5" fill="#E9E6F5"/>
<circle cx="217.5" cy="764.35" r="7.5" fill="#E9E6F5"/>
<circle cx="217.5" cy="799.35" r="7.5" fill="#E9E6F5"/>
<circle cx="217.5" cy="834.35" r="7.5" fill="#E9E6F5"/>
<circle cx="217.5" cy="869.35" r="7.5" fill="#E9E6F5"/>
<circle cx="217.5" cy="904.35" r="7.5" fill="#E9E6F5"/>
<circle cx="217.5" cy="939.35" r="7.5" fill="#E9E6F5"/>
<circle cx="217.5" cy="974.35" r="7.5" fill="#E9E6F5"/>
<circle cx="252.5" cy="659.35" r="7.5" fill="#E9E6F5"/>
<circle cx="252.5" cy="694.35" r="7.5" fill="#E9E6F5"/>
<circle cx="252.5" cy="729.35" r="7.5" fill="#E9E6F5"/>
<circle cx="252.5" cy="764.35" r="7.5" fill="#E9E6F5"/>
<circle cx="252.5" cy="799.35" r="7.5" fill="#E9E6F5"/>
<circle cx="252.5" cy="834.35" r="7.5" fill="#E9E6F5"/>
<circle cx="252.5" cy="869.35" r="7.5" fill="#E9E6F5"/>
<circle cx="252.5" cy="904.35" r="7.5" fill="#E9E6F5"/>
<circle cx="252.5" cy="939.35" r="7.5" fill="#E9E6F5"/>
<circle cx="252.5" cy="974.35" r="7.5" fill="#E9E6F5"/>
<circle cx="287.5" cy="659.35" r="7.5" fill="#E9E6F5"/>
<circle cx="287.5" cy="694.35" r="7.5" fill="#E9E6F5"/>
<circle cx="287.5" cy="729.35" r="7.5" fill="#E9E6F5"/>
<circle cx="287.5" cy="764.35" r="7.5" fill="#E9E6F5"/>
<circle cx="287.5" cy="799.35" r="7.5" fill="#E9E6F5"/>
<circle cx="287.5" cy="834.35" r="7.5" fill="#E9E6F5"/>
<circle cx="287.5" cy="869.35" r="7.5" fill="#E9E6F5"/>
<circle cx="287.5" cy="904.35" r="7.5" fill="#E9E6F5"/>
<circle cx="287.5" cy="939.35" r="7.5" fill="#E9E6F5"/>
<circle cx="287.5" cy="974.35" r="7.5" fill="#E9E6F5"/>
<circle cx="322.5" cy="659.35" r="7.5" fill="#E9E6F5"/>
<circle cx="322.5" cy="694.35" r="7.5" fill="#E9E6F5"/>
<circle cx="322.5" cy="729.35" r="7.5" fill="#E9E6F5"/>
<circle cx="322.5" cy="764.35" r="7.5" fill="#E9E6F5"/>
<circle cx="322.5" cy="799.35" r="7.5" fill="#E9E6F5"/>
<circle cx="322.5" cy="834.35" r="7.5" fill="#E9E6F5"/>
<circle cx="322.5" cy="869.35" r="7.5" fill="#E9E6F5"/>
<circle cx="322.5" cy="904.35" r="7.5" fill="#E9E6F5"/>
<circle cx="322.5" cy="939.35" r="7.5" fill="#E9E6F5"/>
<circle cx="322.5" cy="974.35" r="7.5" fill="#E9E6F5"/>
<circle cx="357.5" cy="659.35" r="7.5" fill="#E9E6F5"/>
<circle cx="357.5" cy="694.35" r="7.5" fill="#E9E6F5"/>
<circle cx="357.5" cy="729.35" r="7.5" fill="#E9E6F5"/>
<circle cx="357.5" cy="764.35" r="7.5" fill="#E9E6F5"/>
<circle cx="357.5" cy="799.35" r="7.5" fill="#E9E6F5"/>
<circle cx="357.5" cy="834.35" r="7.5" fill="#E9E6F5"/>
<circle cx="357.5" cy="869.35" r="7.5" fill="#E9E6F5"/>
<circle cx="357.5" cy="904.35" r="7.5" fill="#E9E6F5"/>
<circle cx="357.5" cy="939.35" r="7.5" fill="#E9E6F5"/>
<circle cx="357.5" cy="974.35" r="7.5" fill="#E9E6F5"/>
<circle cx="392.5" cy="659.35" r="7.5" fill="#E9E6F5"/>
<circle cx="392.5" cy="694.35" r="7.5" fill="#E9E6F5"/>
<circle cx="392.5" cy="729.35" r="7.5" fill="#E9E6F5"/>
<circle cx="392.5" cy="764.35" r="7.5" fill="#E9E6F5"/>
<circle cx="392.5" cy="799.35" r="7.5" fill="#E9E6F5"/>
<circle cx="392.5" cy="834.35" r="7.5" fill="#E9E6F5"/>
<circle cx="392.5" cy="869.35" r="7.5" fill="#E9E6F5"/>
<circle cx="392.5" cy="904.35" r="7.5" fill="#E9E6F5"/>
<circle cx="392.5" cy="939.35" r="7.5" fill="#E9E6F5"/>
<circle cx="392.5" cy="974.35" r="7.5" fill="#E9E6F5"/>
<circle cx="427.5" cy="659.35" r="7.5" fill="#E9E6F5"/>
<circle cx="427.5" cy="694.35" r="7.5" fill="#E9E6F5"/>
<circle cx="427.5" cy="729.35" r="7.5" fill="#E9E6F5"/>
<circle cx="427.5" cy="764.35" r="7.5" fill="#E9E6F5"/>
<circle cx="427.5" cy="799.35" r="7.5" fill="#E9E6F5"/>
<circle cx="427.5" cy="834.35" r="7.5" fill="#E9E6F5"/>
<circle cx="427.5" cy="869.35" r="7.5" fill="#E9E6F5"/>
<circle cx="427.5" cy="904.35" r="7.5" fill="#E9E6F5"/>
<circle cx="427.5" cy="939.35" r="7.5" fill="#E9E6F5"/>
<circle cx="427.5" cy="974.35" r="7.5" fill="#E9E6F5"/>
<circle cx="462.5" cy="659.35" r="7.5" fill="#E9E6F5"/>
<circle cx="462.5" cy="694.35" r="7.5" fill="#E9E6F5"/>
<circle cx="462.5" cy="729.35" r="7.5" fill="#E9E6F5"/>
<circle cx="462.5" cy="764.35" r="7.5" fill="#E9E6F5"/>
<circle cx="462.5" cy="799.35" r="7.5" fill="#E9E6F5"/>
<circle cx="462.5" cy="834.35" r="7.5" fill="#E9E6F5"/>
<circle cx="462.5" cy="869.35" r="7.5" fill="#E9E6F5"/>
<circle cx="462.5" cy="904.35" r="7.5" fill="#E9E6F5"/>
<circle cx="462.5" cy="939.35" r="7.5" fill="#E9E6F5"/>
<circle cx="462.5" cy="974.35" r="7.5" fill="#E9E6F5"/>
<circle cx="497.5" cy="659.35" r="7.5" fill="#E9E6F5"/>
<circle cx="497.5" cy="694.35" r="7.5" fill="#E9E6F5"/>
<circle cx="497.5" cy="729.35" r="7.5" fill="#E9E6F5"/>
<circle cx="497.5" cy="764.35" r="7.5" fill="#E9E6F5"/>
<circle cx="497.5" cy="799.35" r="7.5" fill="#E9E6F5"/>
<circle cx="497.5" cy="834.35" r="7.5" fill="#E9E6F5"/>
<circle cx="497.5" cy="869.35" r="7.5" fill="#E9E6F5"/>
<circle cx="497.5" cy="904.35" r="7.5" fill="#E9E6F5"/>
<circle cx="497.5" cy="939.35" r="7.5" fill="#E9E6F5"/>
<circle cx="497.5" cy="974.35" r="7.5" fill="#E9E6F5"/>
<circle cx="1003" cy="791.85" r="7.5" transform="rotate(-90 1003 791.85)" fill="#E9E6F5"/>
<circle cx="1038" cy="791.85" r="7.5" transform="rotate(-90 1038 791.85)" fill="#E9E6F5"/>
<circle cx="1073" cy="791.85" r="7.5" transform="rotate(-90 1073 791.85)" fill="#E9E6F5"/>
<circle cx="1108" cy="791.85" r="7.5" transform="rotate(-90 1108 791.85)" fill="#E9E6F5"/>
<circle cx="1143" cy="791.85" r="7.5" transform="rotate(-90 1143 791.85)" fill="#E9E6F5"/>
<circle cx="1178" cy="791.85" r="7.5" transform="rotate(-90 1178 791.85)" fill="#E9E6F5"/>
<circle cx="1213" cy="791.85" r="7.5" transform="rotate(-90 1213 791.85)" fill="#E9E6F5"/>
<circle cx="1248" cy="791.85" r="7.5" transform="rotate(-90 1248 791.85)" fill="#E9E6F5"/>
<circle cx="1283" cy="791.85" r="7.5" transform="rotate(-90 1283 791.85)" fill="#E9E6F5"/>
<circle cx="1318" cy="791.85" r="7.5" transform="rotate(-90 1318 791.85)" fill="#E9E6F5"/>
<circle cx="1003" cy="756.85" r="7.5" transform="rotate(-90 1003 756.85)" fill="#E9E6F5"/>
<circle cx="1038" cy="756.85" r="7.5" transform="rotate(-90 1038 756.85)" fill="#E9E6F5"/>
<circle cx="1073" cy="756.85" r="7.5" transform="rotate(-90 1073 756.85)" fill="#E9E6F5"/>
<circle cx="1108" cy="756.85" r="7.5" transform="rotate(-90 1108 756.85)" fill="#E9E6F5"/>
<circle cx="1143" cy="756.85" r="7.5" transform="rotate(-90 1143 756.85)" fill="#E9E6F5"/>
<circle cx="1178" cy="756.85" r="7.5" transform="rotate(-90 1178 756.85)" fill="#E9E6F5"/>
<circle cx="1213" cy="756.85" r="7.5" transform="rotate(-90 1213 756.85)" fill="#E9E6F5"/>
<circle cx="1248" cy="756.85" r="7.5" transform="rotate(-90 1248 756.85)" fill="#E9E6F5"/>
<circle cx="1283" cy="756.85" r="7.5" transform="rotate(-90 1283 756.85)" fill="#E9E6F5"/>
<circle cx="1318" cy="756.85" r="7.5" transform="rotate(-90 1318 756.85)" fill="#E9E6F5"/>
<circle cx="1003" cy="721.85" r="7.5" transform="rotate(-90 1003 721.85)" fill="#E9E6F5"/>
<circle cx="1038" cy="721.85" r="7.5" transform="rotate(-90 1038 721.85)" fill="#E9E6F5"/>
<circle cx="1073" cy="721.85" r="7.5" transform="rotate(-90 1073 721.85)" fill="#E9E6F5"/>
<circle cx="1108" cy="721.85" r="7.5" transform="rotate(-90 1108 721.85)" fill="#E9E6F5"/>
<circle cx="1143" cy="721.85" r="7.5" transform="rotate(-90 1143 721.85)" fill="#E9E6F5"/>
<circle cx="1178" cy="721.85" r="7.5" transform="rotate(-90 1178 721.85)" fill="#E9E6F5"/>
<circle cx="1213" cy="721.85" r="7.5" transform="rotate(-90 1213 721.85)" fill="#E9E6F5"/>
<circle cx="1248" cy="721.85" r="7.5" transform="rotate(-90 1248 721.85)" fill="#E9E6F5"/>
<circle cx="1283" cy="721.85" r="7.5" transform="rotate(-90 1283 721.85)" fill="#E9E6F5"/>
<circle cx="1318" cy="721.85" r="7.5" transform="rotate(-90 1318 721.85)" fill="#E9E6F5"/>
<circle cx="1003" cy="686.85" r="7.5" transform="rotate(-90 1003 686.85)" fill="#E9E6F5"/>
<circle cx="1038" cy="686.85" r="7.5" transform="rotate(-90 1038 686.85)" fill="#E9E6F5"/>
<circle cx="1073" cy="686.85" r="7.5" transform="rotate(-90 1073 686.85)" fill="#E9E6F5"/>
<circle cx="1108" cy="686.85" r="7.5" transform="rotate(-90 1108 686.85)" fill="#E9E6F5"/>
<circle cx="1143" cy="686.85" r="7.5" transform="rotate(-90 1143 686.85)" fill="#E9E6F5"/>
<circle cx="1178" cy="686.85" r="7.5" transform="rotate(-90 1178 686.85)" fill="#E9E6F5"/>
<circle cx="1213" cy="686.85" r="7.5" transform="rotate(-90 1213 686.85)" fill="#E9E6F5"/>
<circle cx="1248" cy="686.85" r="7.5" transform="rotate(-90 1248 686.85)" fill="#E9E6F5"/>
<circle cx="1283" cy="686.85" r="7.5" transform="rotate(-90 1283 686.85)" fill="#E9E6F5"/>
<circle cx="1318" cy="686.85" r="7.5" transform="rotate(-90 1318 686.85)" fill="#E9E6F5"/>
<circle cx="1003" cy="651.85" r="7.5" transform="rotate(-90 1003 651.85)" fill="#E9E6F5"/>
<circle cx="1038" cy="651.85" r="7.5" transform="rotate(-90 1038 651.85)" fill="#E9E6F5"/>
<circle cx="1073" cy="651.85" r="7.5" transform="rotate(-90 1073 651.85)" fill="#E9E6F5"/>
<circle cx="1108" cy="651.85" r="7.5" transform="rotate(-90 1108 651.85)" fill="#E9E6F5"/>
<circle cx="1143" cy="651.85" r="7.5" transform="rotate(-90 1143 651.85)" fill="#E9E6F5"/>
<circle cx="1178" cy="651.85" r="7.5" transform="rotate(-90 1178 651.85)" fill="#E9E6F5"/>
<circle cx="1213" cy="651.85" r="7.5" transform="rotate(-90 1213 651.85)" fill="#E9E6F5"/>
<circle cx="1248" cy="651.85" r="7.5" transform="rotate(-90 1248 651.85)" fill="#E9E6F5"/>
<circle cx="1283" cy="651.85" r="7.5" transform="rotate(-90 1283 651.85)" fill="#E9E6F5"/>
<circle cx="1318" cy="651.85" r="7.5" transform="rotate(-90 1318 651.85)" fill="#E9E6F5"/>
<circle cx="1003" cy="616.85" r="7.5" transform="rotate(-90 1003 616.85)" fill="#E9E6F5"/>
<circle cx="1038" cy="616.85" r="7.5" transform="rotate(-90 1038 616.85)" fill="#E9E6F5"/>
<circle cx="1073" cy="616.85" r="7.5" transform="rotate(-90 1073 616.85)" fill="#E9E6F5"/>
<circle cx="1108" cy="616.85" r="7.5" transform="rotate(-90 1108 616.85)" fill="#E9E6F5"/>
<circle cx="1143" cy="616.85" r="7.5" transform="rotate(-90 1143 616.85)" fill="#E9E6F5"/>
<circle cx="1178" cy="616.85" r="7.5" transform="rotate(-90 1178 616.85)" fill="#E9E6F5"/>
<circle cx="1213" cy="616.85" r="7.5" transform="rotate(-90 1213 616.85)" fill="#E9E6F5"/>
<circle cx="1248" cy="616.85" r="7.5" transform="rotate(-90 1248 616.85)" fill="#E9E6F5"/>
<circle cx="1283" cy="616.85" r="7.5" transform="rotate(-90 1283 616.85)" fill="#E9E6F5"/>
<circle cx="1318" cy="616.85" r="7.5" transform="rotate(-90 1318 616.85)" fill="#E9E6F5"/>
<circle cx="1003" cy="581.85" r="7.5" transform="rotate(-90 1003 581.85)" fill="#E9E6F5"/>
<circle cx="1038" cy="581.85" r="7.5" transform="rotate(-90 1038 581.85)" fill="#E9E6F5"/>
<circle cx="1073" cy="581.85" r="7.5" transform="rotate(-90 1073 581.85)" fill="#E9E6F5"/>
<circle cx="1108" cy="581.85" r="7.5" transform="rotate(-90 1108 581.85)" fill="#E9E6F5"/>
<circle cx="1143" cy="581.85" r="7.5" transform="rotate(-90 1143 581.85)" fill="#E9E6F5"/>
<circle cx="1178" cy="581.85" r="7.5" transform="rotate(-90 1178 581.85)" fill="#E9E6F5"/>
<circle cx="1213" cy="581.85" r="7.5" transform="rotate(-90 1213 581.85)" fill="#E9E6F5"/>
<circle cx="1248" cy="581.85" r="7.5" transform="rotate(-90 1248 581.85)" fill="#E9E6F5"/>
<circle cx="1283" cy="581.85" r="7.5" transform="rotate(-90 1283 581.85)" fill="#E9E6F5"/>
<circle cx="1318" cy="581.85" r="7.5" transform="rotate(-90 1318 581.85)" fill="#E9E6F5"/>
<circle cx="1003" cy="546.85" r="7.5" transform="rotate(-90 1003 546.85)" fill="#E9E6F5"/>
<circle cx="1038" cy="546.85" r="7.5" transform="rotate(-90 1038 546.85)" fill="#E9E6F5"/>
<circle cx="1073" cy="546.85" r="7.5" transform="rotate(-90 1073 546.85)" fill="#E9E6F5"/>
<circle cx="1108" cy="546.85" r="7.5" transform="rotate(-90 1108 546.85)" fill="#E9E6F5"/>
<circle cx="1143" cy="546.85" r="7.5" transform="rotate(-90 1143 546.85)" fill="#E9E6F5"/>
<circle cx="1178" cy="546.85" r="7.5" transform="rotate(-90 1178 546.85)" fill="#E9E6F5"/>
<circle cx="1213" cy="546.85" r="7.5" transform="rotate(-90 1213 546.85)" fill="#E9E6F5"/>
<circle cx="1248" cy="546.85" r="7.5" transform="rotate(-90 1248 546.85)" fill="#E9E6F5"/>
<circle cx="1283" cy="546.85" r="7.5" transform="rotate(-90 1283 546.85)" fill="#E9E6F5"/>
<circle cx="1318" cy="546.85" r="7.5" transform="rotate(-90 1318 546.85)" fill="#E9E6F5"/>
<circle cx="1003" cy="511.85" r="7.5" transform="rotate(-90 1003 511.85)" fill="#E9E6F5"/>
<circle cx="1038" cy="511.85" r="7.5" transform="rotate(-90 1038 511.85)" fill="#E9E6F5"/>
<circle cx="1073" cy="511.85" r="7.5" transform="rotate(-90 1073 511.85)" fill="#E9E6F5"/>
<circle cx="1108" cy="511.85" r="7.5" transform="rotate(-90 1108 511.85)" fill="#E9E6F5"/>
<circle cx="1143" cy="511.85" r="7.5" transform="rotate(-90 1143 511.85)" fill="#E9E6F5"/>
<circle cx="1178" cy="511.85" r="7.5" transform="rotate(-90 1178 511.85)" fill="#E9E6F5"/>
<circle cx="1213" cy="511.85" r="7.5" transform="rotate(-90 1213 511.85)" fill="#E9E6F5"/>
<circle cx="1248" cy="511.85" r="7.5" transform="rotate(-90 1248 511.85)" fill="#E9E6F5"/>
<circle cx="1283" cy="511.85" r="7.5" transform="rotate(-90 1283 511.85)" fill="#E9E6F5"/>
<circle cx="1318" cy="511.85" r="7.5" transform="rotate(-90 1318 511.85)" fill="#E9E6F5"/>
<circle cx="1003" cy="476.85" r="7.5" transform="rotate(-90 1003 476.85)" fill="#E9E6F5"/>
<circle cx="1038" cy="476.85" r="7.5" transform="rotate(-90 1038 476.85)" fill="#E9E6F5"/>
<circle cx="1073" cy="476.85" r="7.5" transform="rotate(-90 1073 476.85)" fill="#E9E6F5"/>
<circle cx="1108" cy="476.85" r="7.5" transform="rotate(-90 1108 476.85)" fill="#E9E6F5"/>
<circle cx="1143" cy="476.85" r="7.5" transform="rotate(-90 1143 476.85)" fill="#E9E6F5"/>
<circle cx="1178" cy="476.85" r="7.5" transform="rotate(-90 1178 476.85)" fill="#E9E6F5"/>
<circle cx="1213" cy="476.85" r="7.5" transform="rotate(-90 1213 476.85)" fill="#E9E6F5"/>
<circle cx="1248" cy="476.85" r="7.5" transform="rotate(-90 1248 476.85)" fill="#E9E6F5"/>
<circle cx="1283" cy="476.85" r="7.5" transform="rotate(-90 1283 476.85)" fill="#E9E6F5"/>
<circle cx="1318" cy="476.85" r="7.5" transform="rotate(-90 1318 476.85)" fill="#E9E6F5"/>
<circle cx="1003" cy="441.85" r="7.5" transform="rotate(-90 1003 441.85)" fill="#E9E6F5"/>
<circle cx="1038" cy="441.85" r="7.5" transform="rotate(-90 1038 441.85)" fill="#E9E6F5"/>
<circle cx="1073" cy="441.85" r="7.5" transform="rotate(-90 1073 441.85)" fill="#E9E6F5"/>
<circle cx="1108" cy="441.85" r="7.5" transform="rotate(-90 1108 441.85)" fill="#E9E6F5"/>
<circle cx="1143" cy="441.85" r="7.5" transform="rotate(-90 1143 441.85)" fill="#E9E6F5"/>
<circle cx="1178" cy="441.85" r="7.5" transform="rotate(-90 1178 441.85)" fill="#E9E6F5"/>
<circle cx="1213" cy="441.85" r="7.5" transform="rotate(-90 1213 441.85)" fill="#E9E6F5"/>
<circle cx="1248" cy="441.85" r="7.5" transform="rotate(-90 1248 441.85)" fill="#E9E6F5"/>
<circle cx="1283" cy="441.85" r="7.5" transform="rotate(-90 1283 441.85)" fill="#E9E6F5"/>
<circle cx="1318" cy="441.85" r="7.5" transform="rotate(-90 1318 441.85)" fill="#E9E6F5"/>
<circle cx="1003" cy="406.85" r="7.5" transform="rotate(-90 1003 406.85)" fill="#E9E6F5"/>
<circle cx="1038" cy="406.85" r="7.5" transform="rotate(-90 1038 406.85)" fill="#E9E6F5"/>
<circle cx="1073" cy="406.85" r="7.5" transform="rotate(-90 1073 406.85)" fill="#E9E6F5"/>
<circle cx="1108" cy="406.85" r="7.5" transform="rotate(-90 1108 406.85)" fill="#E9E6F5"/>
<circle cx="1143" cy="406.85" r="7.5" transform="rotate(-90 1143 406.85)" fill="#E9E6F5"/>
<circle cx="1178" cy="406.85" r="7.5" transform="rotate(-90 1178 406.85)" fill="#E9E6F5"/>
<circle cx="1213" cy="406.85" r="7.5" transform="rotate(-90 1213 406.85)" fill="#E9E6F5"/>
<circle cx="1248" cy="406.85" r="7.5" transform="rotate(-90 1248 406.85)" fill="#E9E6F5"/>
<circle cx="1283" cy="406.85" r="7.5" transform="rotate(-90 1283 406.85)" fill="#E9E6F5"/>
<circle cx="1318" cy="406.85" r="7.5" transform="rotate(-90 1318 406.85)" fill="#E9E6F5"/>
<circle cx="1003" cy="371.85" r="7.5" transform="rotate(-90 1003 371.85)" fill="#E9E6F5"/>
<circle cx="1038" cy="371.85" r="7.5" transform="rotate(-90 1038 371.85)" fill="#E9E6F5"/>
<circle cx="1073" cy="371.85" r="7.5" transform="rotate(-90 1073 371.85)" fill="#E9E6F5"/>
<circle cx="1108" cy="371.85" r="7.5" transform="rotate(-90 1108 371.85)" fill="#E9E6F5"/>
<circle cx="1143" cy="371.85" r="7.5" transform="rotate(-90 1143 371.85)" fill="#E9E6F5"/>
<circle cx="1178" cy="371.85" r="7.5" transform="rotate(-90 1178 371.85)" fill="#E9E6F5"/>
<circle cx="1213" cy="371.85" r="7.5" transform="rotate(-90 1213 371.85)" fill="#E9E6F5"/>
<circle cx="1248" cy="371.85" r="7.5" transform="rotate(-90 1248 371.85)" fill="#E9E6F5"/>
<circle cx="1283" cy="371.85" r="7.5" transform="rotate(-90 1283 371.85)" fill="#E9E6F5"/>
<circle cx="1318" cy="371.85" r="7.5" transform="rotate(-90 1318 371.85)" fill="#E9E6F5"/>
<circle cx="1003" cy="336.85" r="7.5" transform="rotate(-90 1003 336.85)" fill="#E9E6F5"/>
<circle cx="1038" cy="336.85" r="7.5" transform="rotate(-90 1038 336.85)" fill="#E9E6F5"/>
<circle cx="1073" cy="336.85" r="7.5" transform="rotate(-90 1073 336.85)" fill="#E9E6F5"/>
<circle cx="1108" cy="336.85" r="7.5" transform="rotate(-90 1108 336.85)" fill="#E9E6F5"/>
<circle cx="1143" cy="336.85" r="7.5" transform="rotate(-90 1143 336.85)" fill="#E9E6F5"/>
<circle cx="1178" cy="336.85" r="7.5" transform="rotate(-90 1178 336.85)" fill="#E9E6F5"/>
<circle cx="1213" cy="336.85" r="7.5" transform="rotate(-90 1213 336.85)" fill="#E9E6F5"/>
<circle cx="1248" cy="336.85" r="7.5" transform="rotate(-90 1248 336.85)" fill="#E9E6F5"/>
<circle cx="1283" cy="336.85" r="7.5" transform="rotate(-90 1283 336.85)" fill="#E9E6F5"/>
<circle cx="1318" cy="336.85" r="7.5" transform="rotate(-90 1318 336.85)" fill="#E9E6F5"/>
<circle cx="1003" cy="301.85" r="7.5" transform="rotate(-90 1003 301.85)" fill="#E9E6F5"/>
<circle cx="1038" cy="301.85" r="7.5" transform="rotate(-90 1038 301.85)" fill="#E9E6F5"/>
<circle cx="1073" cy="301.85" r="7.5" transform="rotate(-90 1073 301.85)" fill="#E9E6F5"/>
<circle cx="1108" cy="301.85" r="7.5" transform="rotate(-90 1108 301.85)" fill="#E9E6F5"/>
<circle cx="1143" cy="301.85" r="7.5" transform="rotate(-90 1143 301.85)" fill="#E9E6F5"/>
<circle cx="1178" cy="301.85" r="7.5" transform="rotate(-90 1178 301.85)" fill="#E9E6F5"/>
<circle cx="1213" cy="301.85" r="7.5" transform="rotate(-90 1213 301.85)" fill="#E9E6F5"/>
<circle cx="1248" cy="301.85" r="7.5" transform="rotate(-90 1248 301.85)" fill="#E9E6F5"/>
<circle cx="1283" cy="301.85" r="7.5" transform="rotate(-90 1283 301.85)" fill="#E9E6F5"/>
<circle cx="1318" cy="301.85" r="7.5" transform="rotate(-90 1318 301.85)" fill="#E9E6F5"/>
<path d="M1219.76 11.1653L1293.97 31.0516L1239.64 85.3822L1219.76 11.1653Z" fill="#EAE8F4"/>
<circle cx="991" cy="882.85" r="50" fill="#EAE8F4"/>
</svg>
